<?xml version="1.0" encoding="UTF-8"?>
<!DOCTYPE svg PUBLIC "-//W3C//DTD SVG 1.1//EN" "http://www.w3.org/Graphics/SVG/1.1/DTD/svg11.dtd">
<svg xmlns="http://www.w3.org/2000/svg" version="1.1" width="161px" height="197px" style="shape-rendering:geometricPrecision; text-rendering:geometricPrecision; image-rendering:optimizeQuality; fill-rule:evenodd; clip-rule:evenodd" xmlns:xlink="http://www.w3.org/1999/xlink">
<g><path style="opacity:0.915" fill="#fefffe" d="M 73.5,-0.5 C 73.8333,-0.5 74.1667,-0.5 74.5,-0.5C 60.7102,54.4932 46.3769,109.327 31.5,164C 45.8333,162.333 60.1667,160.667 74.5,159C 50.1056,171.53 25.7722,184.03 1.5,196.5C 0.833333,196.5 0.166667,196.5 -0.5,196.5C -0.5,196.167 -0.5,195.833 -0.5,195.5C 24.3427,130.315 49.0094,64.9814 73.5,-0.5 Z"/></g>
<g><path style="opacity:0.911" fill="#fefffe" d="M 85.5,-0.5 C 86.1667,-0.5 86.8333,-0.5 87.5,-0.5C 111.262,64.7957 135.596,129.796 160.5,194.5C 160.5,195.167 160.5,195.833 160.5,196.5C 159.833,196.5 159.167,196.5 158.5,196.5C 134.228,184.03 109.894,171.53 85.5,159C 99.3526,160.359 113.186,162.193 127,164.5C 127.5,164.167 128,163.833 128.5,163.5C 114.164,108.821 99.8303,54.154 85.5,-0.5 Z"/></g>
<g><path style="opacity:0.915" fill="#fefffe" d="M 79.5,60.5 C 80.2216,60.9175 80.7216,61.5842 81,62.5C 84.0113,80.4037 87.1779,98.2371 90.5,116C 87.1272,122.58 83.6272,129.08 80,135.5C 76.2736,128.717 73.1069,121.717 70.5,114.5C 73.5028,96.4882 76.5028,78.4882 79.5,60.5 Z"/></g>
</svg>
